<svg width="278" height="278" viewBox="0 0 278 278" fill="none" xmlns="http://www.w3.org/2000/svg">
<circle cx="138.981" cy="139.01" r="100.769" transform="rotate(-120.303 138.981 139.01)" stroke="white" stroke-width="0.5"/>
<circle cx="138.981" cy="139.01" r="29.7405" transform="rotate(-120.303 138.981 139.01)" stroke="white" stroke-width="0.5"/>
<path d="M84.005 69.2832C101.105 55.8009 122.563 49.0723 144.299 50.3766C166.036 51.6809 186.535 60.9272 201.9 76.3575C217.265 91.7879 226.424 112.326 227.636 134.068C228.848 155.81 222.029 177.239 208.474 194.282C194.919 211.324 175.574 222.792 154.117 226.504C132.66 230.216 110.588 225.914 92.0951 214.415C73.6028 202.917 59.9803 185.024 53.8178 164.139C47.6552 143.254 49.3821 120.832 58.6703 101.136L105.068 123.017C101.146 131.334 100.417 140.802 103.019 149.621C105.621 158.441 111.374 165.996 119.182 170.852C126.991 175.707 136.312 177.524 145.373 175.956C154.433 174.389 162.602 169.546 168.326 162.35C174.05 155.153 176.929 146.104 176.418 136.923C175.906 127.742 172.038 119.07 165.55 112.554C159.062 106.038 150.405 102.134 141.227 101.583C132.048 101.032 122.987 103.873 115.766 109.566L84.005 69.2832Z" fill="#424242"/>
<path d="M51.9242 121.536C55.3803 104.318 63.8646 88.5114 76.3041 76.1151C88.7437 63.7188 104.58 55.2897 121.81 51.8936C139.04 48.4975 156.89 50.287 173.103 57.0358C189.316 63.7846 203.164 75.1895 212.895 89.8084C222.627 104.427 227.804 121.604 227.774 139.165C227.743 156.727 222.506 173.885 212.724 188.47C202.941 203.055 189.054 214.411 172.818 221.104C156.581 227.796 138.725 229.523 121.507 226.067L131.602 175.772C138.873 177.232 146.413 176.502 153.269 173.676C160.125 170.85 165.99 166.055 170.12 159.896C174.251 153.737 176.463 146.492 176.476 139.076C176.488 131.66 174.302 124.407 170.193 118.234C166.084 112.061 160.236 107.245 153.39 104.395C146.543 101.545 139.006 100.789 131.73 102.224C124.454 103.658 117.767 107.217 112.514 112.452C107.261 117.686 103.679 124.361 102.219 131.632L51.9242 121.536Z" fill="#7F7F7F"/>
</svg>
