<svg  viewBox="0 0 278 278" fill="none" xmlns="http://www.w3.org/2000/svg">
<circle cx="138.981" cy="139.01" r="100.769" transform="rotate(-120.303 138.981 139.01)" stroke="white" stroke-width="0.5"/>
<circle cx="138.981" cy="139.01" r="29.7405" transform="rotate(-120.303 138.981 139.01)" stroke="white" stroke-width="0.5"/>
<path d="M84.005 69.2832C101.105 55.8009 122.563 49.0723 144.299 50.3766C166.036 51.6809 186.535 60.9272 201.9 76.3575C217.265 91.7879 226.424 112.326 227.636 134.068C228.848 155.81 222.029 177.239 208.474 194.282C194.919 211.324 175.574 222.792 154.117 226.504C132.66 230.216 110.588 225.914 92.0951 214.415C73.6028 202.917 59.9803 185.024 53.8178 164.139C47.6552 143.254 49.3821 120.832 58.6703 101.136L105.068 123.017C101.146 131.334 100.417 140.802 103.019 149.621C105.621 158.441 111.374 165.996 119.182 170.852C126.991 175.707 136.312 177.524 145.373 175.956C154.433 174.389 162.602 169.546 168.326 162.35C174.05 155.153 176.929 146.104 176.418 136.923C175.906 127.742 172.038 119.07 165.55 112.554C159.062 106.038 150.405 102.134 141.227 101.583C132.048 101.032 122.987 103.873 115.766 109.566L84.005 69.2832Z" fill="#424242"/>
<path d="M51.9242 121.536C56.0846 100.809 67.5034 82.2471 84.1272 69.1873C100.751 56.1276 121.489 49.4274 142.611 50.2917C163.734 51.1561 183.855 59.5283 199.356 73.9026C214.857 88.277 224.721 107.71 227.174 128.708C229.627 149.705 224.508 170.889 212.738 188.449C200.967 206.009 183.318 218.794 162.963 224.504C142.609 230.213 120.885 228.474 101.698 219.597C82.512 210.721 67.122 195.29 58.2962 176.081L104.91 154.664C108.637 162.776 115.136 169.292 123.238 173.04C131.339 176.788 140.513 177.523 149.108 175.112C157.703 172.701 165.156 167.302 170.126 159.887C175.097 152.472 177.258 143.527 176.222 134.66C175.187 125.793 171.021 117.587 164.476 111.517C157.93 105.447 149.433 101.912 140.514 101.547C131.594 101.182 122.837 104.011 115.818 109.526C108.798 115.041 103.976 122.879 102.219 131.632L51.9242 121.536Z" fill="#7F7F7F"/>
</svg>
