<svg width="278" height="278" viewBox="0 0 278 278" fill="none" xmlns="http://www.w3.org/2000/svg">
<circle cx="138.981" cy="139.01" r="100.769" transform="rotate(-120.303 138.981 139.01)" stroke="white" stroke-width="0.5"/>
<circle cx="138.981" cy="139.01" r="29.7405" transform="rotate(-120.303 138.981 139.01)" stroke="white" stroke-width="0.5"/>
<path d="M84.005 69.2832C101.105 55.8009 122.563 49.0723 144.299 50.3766C166.036 51.6809 186.535 60.9272 201.9 76.3575C217.265 91.7879 226.424 112.326 227.636 134.068C228.848 155.81 222.029 177.239 208.474 194.282C194.919 211.324 175.574 222.792 154.117 226.504C132.66 230.216 110.588 225.914 92.0951 214.415C73.6028 202.917 59.9803 185.024 53.8178 164.139C47.6552 143.254 49.3821 120.832 58.6703 101.136L105.068 123.017C101.146 131.334 100.417 140.802 103.019 149.621C105.621 158.441 111.374 165.996 119.182 170.852C126.991 175.707 136.312 177.524 145.373 175.956C154.433 174.389 162.602 169.546 168.326 162.35C174.05 155.153 176.929 146.104 176.418 136.923C175.906 127.742 172.038 119.07 165.55 112.554C159.062 106.038 150.405 102.134 141.227 101.583C132.048 101.032 122.987 103.873 115.766 109.566L84.005 69.2832Z" fill="#424242"/>
<path d="M51.9242 121.536C56.5587 98.4474 70.1754 78.1452 89.7787 65.096C109.382 52.0468 133.366 47.3195 156.455 51.9539C179.544 56.5884 199.846 70.2051 212.895 89.8084C225.945 109.412 230.672 133.396 226.037 156.485L175.742 146.389C177.699 136.64 175.703 126.512 170.193 118.234C164.683 109.956 156.11 104.206 146.36 102.249C136.61 100.292 126.482 102.288 118.204 107.799C109.926 113.309 104.176 121.882 102.219 131.632L51.9242 121.536Z" fill="#7F7F7F"/>
</svg>
